<mxfile host="app.diagrams.net" agent="Mozilla/5.0 (Windows NT 10.0; Win64; x64) AppleWebKit/537.36 (KHTML, like Gecko) Chrome/137.0.0.0 Safari/537.36" version="27.2.0">
  <diagram id="UtL5NGmpN7RpcwYgrlhz" name="요구사항명세서">
    <mxGraphModel dx="1665" dy="819" grid="1" gridSize="10" guides="1" tooltips="1" connect="1" arrows="1" fold="1" page="1" pageScale="1" pageWidth="827" pageHeight="1169" math="0" shadow="0">
      <root>
        <mxCell id="0" />
        <mxCell id="1" parent="0" />
        <mxCell id="IjuKtVvtsaJKCJxj3eiM-1" value="&lt;div&gt;&amp;lt;&amp;lt;유스케이스 명세서&amp;gt;&amp;gt;&lt;/div&gt;유스케이스명 : 영화 관람평" style="shape=table;startSize=40;container=1;collapsible=1;childLayout=tableLayout;fixedRows=1;rowLines=0;fontStyle=1;align=center;resizeLast=1;html=1;" parent="1" vertex="1">
          <mxGeometry x="141" y="60" width="510" height="810" as="geometry" />
        </mxCell>
        <mxCell id="IjuKtVvtsaJKCJxj3eiM-2" value="" style="shape=tableRow;horizontal=0;startSize=0;swimlaneHead=0;swimlaneBody=0;fillColor=none;collapsible=0;dropTarget=0;points=[[0,0.5],[1,0.5]];portConstraint=eastwest;top=0;left=0;right=0;bottom=1;strokeColor=default;verticalAlign=middle;fontStyle=0" parent="IjuKtVvtsaJKCJxj3eiM-1" vertex="1">
          <mxGeometry y="40" width="510" height="30" as="geometry" />
        </mxCell>
        <mxCell id="IjuKtVvtsaJKCJxj3eiM-3" value="목표" style="shape=partialRectangle;connectable=0;fillColor=none;top=0;left=0;bottom=0;right=0;fontStyle=1;overflow=hidden;whiteSpace=wrap;html=1;" parent="IjuKtVvtsaJKCJxj3eiM-2" vertex="1">
          <mxGeometry width="60" height="30" as="geometry">
            <mxRectangle width="60" height="30" as="alternateBounds" />
          </mxGeometry>
        </mxCell>
        <mxCell id="IjuKtVvtsaJKCJxj3eiM-4" value="&lt;span style=&quot;text-wrap: nowrap;&quot;&gt;&lt;span style=&quot;font-weight: 400;&quot;&gt;회원과 비회원이 시스템을 통해 영화&amp;nbsp;&lt;/span&gt;&lt;span style=&quot;text-align: center; font-weight: normal;&quot;&gt;관람평을&lt;/span&gt;&lt;span style=&quot;font-weight: 400;&quot;&gt;&amp;nbsp;사용 할 수 있도록 한다.&lt;/span&gt;&lt;/span&gt;" style="shape=partialRectangle;connectable=0;fillColor=none;top=0;left=0;bottom=0;right=0;align=left;spacingLeft=6;fontStyle=1;overflow=hidden;whiteSpace=wrap;html=1;" parent="IjuKtVvtsaJKCJxj3eiM-2" vertex="1">
          <mxGeometry x="60" width="450" height="30" as="geometry">
            <mxRectangle width="450" height="30" as="alternateBounds" />
          </mxGeometry>
        </mxCell>
        <mxCell id="IjuKtVvtsaJKCJxj3eiM-5" value="" style="shape=tableRow;horizontal=0;startSize=0;swimlaneHead=0;swimlaneBody=0;fillColor=none;collapsible=0;dropTarget=0;points=[[0,0.5],[1,0.5]];portConstraint=eastwest;top=0;left=0;right=0;bottom=1;" parent="IjuKtVvtsaJKCJxj3eiM-1" vertex="1">
          <mxGeometry y="70" width="510" height="30" as="geometry" />
        </mxCell>
        <mxCell id="IjuKtVvtsaJKCJxj3eiM-6" value="엑터" style="shape=partialRectangle;connectable=0;fillColor=none;top=0;left=0;bottom=0;right=0;fontStyle=1;overflow=hidden;whiteSpace=wrap;html=1;" parent="IjuKtVvtsaJKCJxj3eiM-5" vertex="1">
          <mxGeometry width="60" height="30" as="geometry">
            <mxRectangle width="60" height="30" as="alternateBounds" />
          </mxGeometry>
        </mxCell>
        <mxCell id="IjuKtVvtsaJKCJxj3eiM-7" value="회원, 비회원" style="shape=partialRectangle;connectable=0;fillColor=none;top=0;left=0;bottom=0;right=0;align=left;spacingLeft=6;fontStyle=0;overflow=hidden;whiteSpace=wrap;html=1;" parent="IjuKtVvtsaJKCJxj3eiM-5" vertex="1">
          <mxGeometry x="60" width="450" height="30" as="geometry">
            <mxRectangle width="450" height="30" as="alternateBounds" />
          </mxGeometry>
        </mxCell>
        <mxCell id="IjuKtVvtsaJKCJxj3eiM-8" value="" style="shape=tableRow;horizontal=0;startSize=0;swimlaneHead=0;swimlaneBody=0;fillColor=none;collapsible=0;dropTarget=0;points=[[0,0.5],[1,0.5]];portConstraint=eastwest;top=0;left=0;right=0;bottom=1;" parent="IjuKtVvtsaJKCJxj3eiM-1" vertex="1">
          <mxGeometry y="100" width="510" height="30" as="geometry" />
        </mxCell>
        <mxCell id="IjuKtVvtsaJKCJxj3eiM-9" value="사전 조건" style="shape=partialRectangle;connectable=0;fillColor=none;top=0;left=0;bottom=0;right=0;fontStyle=1;overflow=hidden;whiteSpace=wrap;html=1;" parent="IjuKtVvtsaJKCJxj3eiM-8" vertex="1">
          <mxGeometry width="60" height="30" as="geometry">
            <mxRectangle width="60" height="30" as="alternateBounds" />
          </mxGeometry>
        </mxCell>
        <mxCell id="IjuKtVvtsaJKCJxj3eiM-10" value="영화 상세정보 페이지에서 영화 관람평 버튼을 클릭하여 관람평 페이지로 이동한다" style="shape=partialRectangle;connectable=0;fillColor=none;top=0;left=0;bottom=0;right=0;align=left;spacingLeft=6;fontStyle=0;overflow=hidden;whiteSpace=wrap;html=1;" parent="IjuKtVvtsaJKCJxj3eiM-8" vertex="1">
          <mxGeometry x="60" width="450" height="30" as="geometry">
            <mxRectangle width="450" height="30" as="alternateBounds" />
          </mxGeometry>
        </mxCell>
        <mxCell id="IjuKtVvtsaJKCJxj3eiM-11" value="" style="shape=tableRow;horizontal=0;startSize=0;swimlaneHead=0;swimlaneBody=0;fillColor=none;collapsible=0;dropTarget=0;points=[[0,0.5],[1,0.5]];portConstraint=eastwest;top=0;left=0;right=0;bottom=1;" parent="IjuKtVvtsaJKCJxj3eiM-1" vertex="1">
          <mxGeometry y="130" width="510" height="30" as="geometry" />
        </mxCell>
        <mxCell id="IjuKtVvtsaJKCJxj3eiM-12" value="사후 처리" style="shape=partialRectangle;connectable=0;fillColor=none;top=0;left=0;bottom=0;right=0;fontStyle=1;overflow=hidden;whiteSpace=wrap;html=1;" parent="IjuKtVvtsaJKCJxj3eiM-11" vertex="1">
          <mxGeometry width="60" height="30" as="geometry">
            <mxRectangle width="60" height="30" as="alternateBounds" />
          </mxGeometry>
        </mxCell>
        <mxCell id="IjuKtVvtsaJKCJxj3eiM-13" value="영화 관람평 작성 및 관람평 열람 가능" style="shape=partialRectangle;connectable=0;fillColor=none;top=0;left=0;bottom=0;right=0;align=left;spacingLeft=6;fontStyle=0;overflow=hidden;whiteSpace=wrap;html=1;" parent="IjuKtVvtsaJKCJxj3eiM-11" vertex="1">
          <mxGeometry x="60" width="450" height="30" as="geometry">
            <mxRectangle width="450" height="30" as="alternateBounds" />
          </mxGeometry>
        </mxCell>
        <mxCell id="IjuKtVvtsaJKCJxj3eiM-14" value="" style="shape=tableRow;horizontal=0;startSize=0;swimlaneHead=0;swimlaneBody=0;fillColor=none;collapsible=0;dropTarget=0;points=[[0,0.5],[1,0.5]];portConstraint=eastwest;top=0;left=0;right=0;bottom=1;" parent="IjuKtVvtsaJKCJxj3eiM-1" vertex="1">
          <mxGeometry y="160" width="510" height="190" as="geometry" />
        </mxCell>
        <mxCell id="IjuKtVvtsaJKCJxj3eiM-15" value="기본흐름" style="shape=partialRectangle;connectable=0;fillColor=none;top=0;left=0;bottom=0;right=0;fontStyle=1;overflow=hidden;whiteSpace=wrap;html=1;" parent="IjuKtVvtsaJKCJxj3eiM-14" vertex="1">
          <mxGeometry width="60" height="190" as="geometry">
            <mxRectangle width="60" height="190" as="alternateBounds" />
          </mxGeometry>
        </mxCell>
        <mxCell id="IjuKtVvtsaJKCJxj3eiM-16" value="&lt;div style=&quot;text-wrap: nowrap;&quot;&gt;&lt;div&gt;1. 회원 및 비회원이 관람평 작성을 클릭을 누른다.&lt;/div&gt;&lt;div&gt;2. 시스템은 회원인지 비회원인지 확인을 요청한다.&lt;/div&gt;&lt;div&gt;3. 회원은 로그인을 하고, 비회원은 개인정보 작성 및 예매 비밀번호를 작성한다.&lt;/div&gt;&lt;div&gt;4. 시스템은 회원 및 비회원이 보는 페이지를 관람평 페이지로 이동한다.&lt;/div&gt;&lt;div&gt;5. 시스템은 회원 및 비회원이 작성하는 관람평의 글자수 제한을 표시한다.&lt;/div&gt;&lt;div&gt;6. 시스템은 회원 및 비회원이 관람평을 작성하는 순간 확인폼을 활성화한다.&lt;/div&gt;&lt;div&gt;7. 시스템은 확인폼이 눌리면 작성 확인을 재요구 한다.&lt;/div&gt;&lt;div&gt;8. 시스템은 관람평 작성이 완료되면 &quot;작성해주셔서 감사합니다.&quot; 메세지를 전달한다.&lt;/div&gt;&lt;div&gt;9. 시스템은 메세지에 있는 확인폼을 클릭하면, 전체 관람평 페이지로 이동한다.&amp;nbsp;&lt;/div&gt;&lt;div&gt;&lt;br&gt;&lt;/div&gt;&lt;/div&gt;" style="shape=partialRectangle;connectable=0;fillColor=none;top=0;left=0;bottom=0;right=0;align=left;spacingLeft=6;fontStyle=0;overflow=hidden;whiteSpace=wrap;html=1;" parent="IjuKtVvtsaJKCJxj3eiM-14" vertex="1">
          <mxGeometry x="60" width="450" height="190" as="geometry">
            <mxRectangle width="450" height="190" as="alternateBounds" />
          </mxGeometry>
        </mxCell>
        <mxCell id="IjuKtVvtsaJKCJxj3eiM-17" value="" style="shape=tableRow;horizontal=0;startSize=0;swimlaneHead=0;swimlaneBody=0;fillColor=none;collapsible=0;dropTarget=0;points=[[0,0.5],[1,0.5]];portConstraint=eastwest;top=0;left=0;right=0;bottom=1;" parent="IjuKtVvtsaJKCJxj3eiM-1" vertex="1">
          <mxGeometry y="350" width="510" height="130" as="geometry" />
        </mxCell>
        <mxCell id="IjuKtVvtsaJKCJxj3eiM-18" value="대안흐름" style="shape=partialRectangle;connectable=0;fillColor=none;top=0;left=0;bottom=0;right=0;fontStyle=1;overflow=hidden;whiteSpace=wrap;html=1;" parent="IjuKtVvtsaJKCJxj3eiM-17" vertex="1">
          <mxGeometry width="60" height="130" as="geometry">
            <mxRectangle width="60" height="130" as="alternateBounds" />
          </mxGeometry>
        </mxCell>
        <mxCell id="IjuKtVvtsaJKCJxj3eiM-19" value="&lt;div&gt;취소 버튼를 입력하면 영화 상세정보 페이지 화면으로 이동&lt;/div&gt;" style="shape=partialRectangle;connectable=0;fillColor=none;top=0;left=0;bottom=0;right=0;align=left;spacingLeft=6;fontStyle=0;overflow=hidden;whiteSpace=wrap;html=1;" parent="IjuKtVvtsaJKCJxj3eiM-17" vertex="1">
          <mxGeometry x="60" width="450" height="130" as="geometry">
            <mxRectangle width="450" height="130" as="alternateBounds" />
          </mxGeometry>
        </mxCell>
        <mxCell id="IjuKtVvtsaJKCJxj3eiM-20" value="" style="shape=tableRow;horizontal=0;startSize=0;swimlaneHead=0;swimlaneBody=0;fillColor=none;collapsible=0;dropTarget=0;points=[[0,0.5],[1,0.5]];portConstraint=eastwest;top=0;left=0;right=0;bottom=1;" parent="IjuKtVvtsaJKCJxj3eiM-1" vertex="1">
          <mxGeometry y="480" width="510" height="330" as="geometry" />
        </mxCell>
        <mxCell id="IjuKtVvtsaJKCJxj3eiM-21" value="예외흐름" style="shape=partialRectangle;connectable=0;fillColor=none;top=0;left=0;bottom=0;right=0;fontStyle=1;overflow=hidden;whiteSpace=wrap;html=1;" parent="IjuKtVvtsaJKCJxj3eiM-20" vertex="1">
          <mxGeometry width="60" height="330" as="geometry">
            <mxRectangle width="60" height="330" as="alternateBounds" />
          </mxGeometry>
        </mxCell>
        <mxCell id="IjuKtVvtsaJKCJxj3eiM-22" value="&lt;div style=&quot;text-wrap: nowrap;&quot;&gt;&lt;br&gt;&lt;/div&gt;&lt;div style=&quot;text-wrap: nowrap;&quot;&gt;1a&amp;nbsp;&lt;span style=&quot;background-color: transparent; color: light-dark(rgb(0, 0, 0), rgb(255, 255, 255));&quot;&gt;로그인을 하지않고 관람평을 작성 하려는 경우&lt;/span&gt;&lt;/div&gt;&lt;div style=&quot;text-wrap: nowrap;&quot;&gt;&lt;span style=&quot;white-space-collapse: preserve; background-color: transparent; color: light-dark(rgb(0, 0, 0), rgb(255, 255, 255));&quot;&gt;&#x9;&lt;/span&gt;&lt;span style=&quot;background-color: transparent; color: light-dark(rgb(0, 0, 0), rgb(255, 255, 255));&quot;&gt;시스템은 로그인 페이지 화면으로 이동&lt;/span&gt;&amp;nbsp;&lt;/div&gt;&lt;div style=&quot;text-wrap: nowrap;&quot;&gt;&lt;br&gt;&lt;/div&gt;&lt;div style=&quot;text-wrap: nowrap;&quot;&gt;1b&amp;nbsp;&lt;span style=&quot;background-color: transparent; color: light-dark(rgb(0, 0, 0), rgb(255, 255, 255));&quot;&gt;회원은 ID/PW , 비회원은 개인정보/예매번호를 잘못 입력한 경우&lt;/span&gt;&lt;/div&gt;&lt;div style=&quot;text-wrap: nowrap;&quot;&gt;&lt;span style=&quot;white-space-collapse: preserve; background-color: transparent; color: light-dark(rgb(0, 0, 0), rgb(255, 255, 255));&quot;&gt;&#x9;&lt;/span&gt;&lt;span style=&quot;background-color: transparent; color: light-dark(rgb(0, 0, 0), rgb(255, 255, 255));&quot;&gt;&#39; 입력된 정보가 옳지 않습니다.&#39; 라는 메세지를 전달&lt;/span&gt;&amp;nbsp;&lt;/div&gt;&lt;div style=&quot;text-wrap: nowrap;&quot;&gt;&lt;br&gt;&lt;/div&gt;&lt;div style=&quot;text-wrap: nowrap;&quot;&gt;&lt;br&gt;&lt;/div&gt;&lt;div style=&quot;text-wrap: nowrap;&quot;&gt;1c 관람평에 비속어가 포함되고 작성완료를 누를 경우&lt;br&gt;&lt;/div&gt;&lt;div style=&quot;text-wrap: nowrap;&quot;&gt;&lt;span style=&quot;white-space-collapse: preserve;&quot;&gt;&#x9;&lt;/span&gt;&#39;&#39;비방 및 욕설이 포함된 관람평의 경우 관리자에 의해 삭제&lt;/div&gt;&lt;div style=&quot;text-wrap: nowrap;&quot;&gt;&lt;span style=&quot;white-space: pre;&quot;&gt;&#x9;&lt;/span&gt;&amp;nbsp;처리가 될 수 있습니다.&quot;&amp;nbsp; 메시지를 작성자에게 전달&lt;br&gt;&lt;/div&gt;&lt;div style=&quot;text-wrap: nowrap;&quot;&gt;&lt;br&gt;&lt;/div&gt;&lt;div style=&quot;text-wrap: nowrap;&quot;&gt;&lt;span style=&quot;background-color: initial;&quot;&gt;1d 관람평에 작성을 하지 않고 확인을 누를 경우&lt;/span&gt;&lt;br&gt;&lt;/div&gt;&lt;div style=&quot;text-wrap: nowrap;&quot;&gt;&lt;span style=&quot;white-space-collapse: preserve;&quot;&gt;&#x9;&lt;/span&gt;&#39;아무것도 입력되지 않았습니다.&#39; 라는 메시지를 작성자에게 전달&lt;/div&gt;&lt;div style=&quot;text-wrap: nowrap;&quot;&gt;&lt;br&gt;&lt;/div&gt;&lt;div style=&quot;text-wrap: nowrap;&quot;&gt;1e&amp;nbsp;&lt;span style=&quot;background-color: transparent; color: light-dark(rgb(0, 0, 0), rgb(255, 255, 255));&quot;&gt;중복 작성한 계정이 있는 경우&lt;/span&gt;&lt;/div&gt;&lt;div style=&quot;text-wrap: nowrap;&quot;&gt;&lt;span style=&quot;white-space-collapse: preserve;&quot;&gt;&#x9;&lt;/span&gt;시스템은 &#39;이미 작성을 완료 하셨습니다.&#39; 라는 메시지를&amp;nbsp; 전달&lt;/div&gt;&lt;div style=&quot;text-wrap: nowrap;&quot;&gt;&lt;br&gt;&lt;/div&gt;&lt;div style=&quot;text-wrap: nowrap;&quot;&gt;1f&amp;nbsp; 관람하지 않은 사용자가 관람평을 작성을 시도한 경우&amp;nbsp;&lt;/div&gt;&lt;div style=&quot;text-wrap: nowrap;&quot;&gt;&amp;nbsp; &amp;nbsp; 시스템은 &#39;관람내역이 없습니다&#39; 메세지를 사용자에게 전달&lt;/div&gt;&lt;div style=&quot;text-wrap: nowrap;&quot;&gt;&lt;br&gt;&lt;/div&gt;&lt;div style=&quot;text-wrap: nowrap;&quot;&gt;&lt;br&gt;&lt;/div&gt;&lt;div style=&quot;text-wrap: nowrap;&quot;&gt;&amp;nbsp;&lt;/div&gt;" style="shape=partialRectangle;connectable=0;fillColor=none;top=0;left=0;bottom=0;right=0;align=left;spacingLeft=6;fontStyle=0;overflow=hidden;whiteSpace=wrap;html=1;" parent="IjuKtVvtsaJKCJxj3eiM-20" vertex="1">
          <mxGeometry x="60" width="450" height="330" as="geometry">
            <mxRectangle width="450" height="330" as="alternateBounds" />
          </mxGeometry>
        </mxCell>
      </root>
    </mxGraphModel>
  </diagram>
</mxfile>
